<svg width="170" height="47" viewBox="0 0 170 47" fill="none" xmlns="http://www.w3.org/2000/svg">
<rect width="170" height="47" fill="#FF7931"/>
<path d="M37.459 25.1582C37.3926 26.0762 37.0527 26.7988 36.4395 27.3262C35.8301 27.8535 35.0254 28.1172 34.0254 28.1172C32.9316 28.1172 32.0703 27.75 31.4414 27.0156C30.8164 26.2773 30.5039 25.2656 30.5039 23.9805V23.459C30.5039 22.6387 30.6484 21.916 30.9375 21.291C31.2266 20.666 31.6387 20.1875 32.1738 19.8555C32.7129 19.5195 33.3379 19.3516 34.0488 19.3516C35.0332 19.3516 35.8262 19.6152 36.4277 20.1426C37.0293 20.6699 37.377 21.4102 37.4707 22.3633H35.7129C35.6699 21.8125 35.5156 21.4141 35.25 21.168C34.9883 20.918 34.5879 20.793 34.0488 20.793C33.4629 20.793 33.0234 21.0039 32.7305 21.4258C32.4414 21.8438 32.293 22.4941 32.2852 23.377V24.0215C32.2852 24.9434 32.4238 25.6172 32.7012 26.043C32.9824 26.4688 33.4238 26.6816 34.0254 26.6816C34.5684 26.6816 34.9727 26.5586 35.2383 26.3125C35.5078 26.0625 35.6621 25.6777 35.7012 25.1582H37.459ZM42.9102 19.4688L45.1016 25.6562L47.2812 19.4688H49.5898V28H47.8262V25.668L48.002 21.6426L45.6992 28H44.4922L42.1953 21.6484L42.3711 25.668V28H40.6133V19.4688H42.9102ZM60.1328 23.9277C60.1328 24.7676 59.9844 25.5039 59.6875 26.1367C59.3906 26.7695 58.9648 27.2578 58.4102 27.6016C57.8594 27.9453 57.2266 28.1172 56.5117 28.1172C55.8047 28.1172 55.1738 27.9473 54.6191 27.6074C54.0645 27.2676 53.6348 26.7832 53.3301 26.1543C53.0254 25.5215 52.8711 24.7949 52.8672 23.9746V23.5527C52.8672 22.7129 53.0176 21.9746 53.3184 21.3379C53.623 20.6973 54.0508 20.207 54.6016 19.8672C55.1562 19.5234 55.7891 19.3516 56.5 19.3516C57.2109 19.3516 57.8418 19.5234 58.3926 19.8672C58.9473 20.207 59.375 20.6973 59.6758 21.3379C59.9805 21.9746 60.1328 22.7109 60.1328 23.5469V23.9277ZM58.3516 23.541C58.3516 22.6465 58.1914 21.9668 57.8711 21.502C57.5508 21.0371 57.0938 20.8047 56.5 20.8047C55.9102 20.8047 55.4551 21.0352 55.1348 21.4961C54.8145 21.9531 54.6523 22.625 54.6484 23.5117V23.9277C54.6484 24.7988 54.8086 25.4746 55.1289 25.9551C55.4492 26.4355 55.9102 26.6758 56.5117 26.6758C57.1016 26.6758 57.5547 26.4453 57.8711 25.9844C58.1875 25.5195 58.3477 24.8438 58.3516 23.957V23.541ZM69.3281 20.8926H66.7148V28H64.957V20.8926H62.3789V19.4688H69.3281V20.8926ZM74.0938 24.9941V28H72.3359V19.4688H75.6641C76.3047 19.4688 76.8672 19.5859 77.3516 19.8203C77.8398 20.0547 78.2148 20.3887 78.4766 20.8223C78.7383 21.252 78.8691 21.7422 78.8691 22.293C78.8691 23.1289 78.582 23.7891 78.0078 24.2734C77.4375 24.7539 76.6465 24.9941 75.6348 24.9941H74.0938ZM74.0938 23.5703H75.6641C76.1289 23.5703 76.4824 23.4609 76.7246 23.2422C76.9707 23.0234 77.0938 22.7109 77.0938 22.3047C77.0938 21.8867 76.9707 21.5488 76.7246 21.291C76.4785 21.0332 76.1387 20.9004 75.7051 20.8926H74.0938V23.5703ZM87.2148 24.3027H83.8398V26.5879H87.8008V28H82.082V19.4688H87.7891V20.8926H83.8398V22.9258H87.2148V24.3027ZM97.3711 20.8926H94.7578V28H93V20.8926H90.4219V19.4688H97.3711V20.8926ZM102.23 22.5449H103.602C104.605 22.5449 105.4 22.7891 105.986 23.2773C106.576 23.7617 106.871 24.416 106.871 25.2402C106.871 26.0684 106.578 26.7344 105.992 27.2383C105.41 27.7383 104.635 27.9922 103.666 28H100.461V19.4688H102.23V22.5449ZM102.23 23.9629V26.5879H103.631C104.08 26.5879 104.438 26.4648 104.703 26.2188C104.973 25.9727 105.107 25.6426 105.107 25.2285C105.107 24.8418 104.979 24.5371 104.721 24.3145C104.467 24.0879 104.117 23.9707 103.672 23.9629H102.23Z" fill="white"/>
<path fill-rule="evenodd" clip-rule="evenodd" d="M129 15L127.6 16.4L133.2 22H121V24H133.2L127.6 29.6L129 31L137 23L129 15Z" fill="white"/>
</svg>
